<svg width="376" height="58" viewBox="0 0 376 58" fill="none" xmlns="http://www.w3.org/2000/svg">
<path d="M39.0498 46.5081C38.1571 46.5081 37.2643 46.3121 36.4369 45.9637C34.399 44.9923 32.6943 43.4391 31.5379 41.5001C33.551 37.6962 34.6049 33.4582 34.608 29.1545V28.9585C34.608 27.6303 34.3902 26.2586 33.9547 24.9957C33.4104 23.5369 32.5612 22.0562 31.2113 21.5119C30.9803 21.4 30.7275 21.3405 30.471 21.3377C28.7944 18.1588 28.7291 15.1322 30.471 12.2363H30.5798C32.6483 12.2581 34.6733 12.8895 36.4369 14.0218C41.1836 17.0483 43.5787 22.949 43.6223 28.7408V28.9585H43.644C43.644 35.0551 42.1634 41.2606 39.0716 46.4863L39.0498 46.5081ZM28.4896 56.1102C26.2557 57.0212 23.8587 57.4641 21.4468 57.4117C19.035 57.3592 16.6595 56.8125 14.4673 55.8054C9.39406 53.4538 5.51836 48.8596 3.14503 43.6339C1.12822 39.1317 0.0585189 34.2629 0.00233444 29.3299C-0.05385 24.3969 0.904686 19.505 2.81842 14.958C5.73609 16.112 8.30538 14.2613 8.30538 14.2613C8.30538 14.2613 8.30538 17.1136 11.0706 18.5507C9.67727 21.8759 8.96512 25.4469 8.97634 29.0522C8.98756 32.6575 9.72192 36.224 11.136 39.5405C12.3876 42.6999 14.615 45.3774 17.4939 47.183C18.5172 47.7709 19.6712 48.1411 20.8252 48.2717V48.3153C22.8937 51.516 25.5066 54.1942 28.4896 56.1102Z" fill="url(#paint0_linear_353_4734)"/>
<path d="M17.3416 28.9579V28.7402C17.3851 22.9702 19.7584 17.0695 24.5269 14.0212C26.3054 12.894 28.3654 12.2903 30.4711 12.2793V21.3371C30.2178 21.3263 29.9651 21.3709 29.7308 21.4678C28.3808 22.0339 27.5316 23.5145 26.9873 24.9516C26.5518 26.2362 26.3341 27.6079 26.3341 28.9361V29.1103L26.3123 29.3281C26.3559 32.7465 26.9873 36.2085 28.359 39.344C29.8832 42.8931 32.2783 46.1373 35.6968 47.6179C38.2661 48.7502 41.1184 48.4889 43.4482 47.1607C46.3271 45.355 48.5545 42.6776 49.8061 39.5181C52.6367 33.0514 52.702 25.1475 49.8714 18.5283C52.6367 17.0913 52.6367 14.2389 52.6367 14.2389C52.6367 14.2389 55.206 16.0897 58.1236 14.9357C60.0421 19.4809 61.005 24.3721 60.9525 29.3053C60.9001 34.2385 59.8334 39.1082 57.8188 43.6116C55.4237 48.8373 51.548 53.4097 46.4965 55.7831C44.2476 56.8193 41.8057 57.3703 39.3297 57.4003C36.8538 57.4303 34.3992 56.9386 32.1259 55.9573C28.0997 54.0891 24.7141 51.0746 22.3931 47.2913C19.0019 41.7751 17.2429 35.4109 17.3198 28.9361L17.3416 28.9579Z" fill="url(#paint1_linear_353_4734)"/>
<path d="M61.0003 6.1056C61.0016 6.2846 60.9473 6.45958 60.8446 6.60619C60.742 6.75287 60.5963 6.86385 60.4276 6.92382L56.9683 8.18223L55.7107 11.6422C55.6488 11.8092 55.5372 11.9533 55.3909 12.055C55.2448 12.1567 55.0709 12.2112 54.8928 12.2112C54.7147 12.2112 54.5408 12.1567 54.3947 12.055C54.2484 11.9533 54.1369 11.8092 54.0749 11.6422L52.8174 8.18165L49.358 6.92382C49.191 6.86183 49.0469 6.75021 48.9453 6.60389C48.8436 6.45764 48.7891 6.28374 48.7891 6.1056C48.7891 5.92746 48.8436 5.75356 48.9453 5.60731C49.0469 5.46099 49.191 5.34937 49.358 5.28738L52.8174 4.02955L54.0749 0.569049C54.1369 0.402022 54.2484 0.257973 54.3947 0.156246C54.5408 0.0545268 54.7147 0 54.8928 0C55.0709 0 55.2448 0.0545268 55.3909 0.156246C55.5372 0.257973 55.6488 0.402022 55.7107 0.569049L56.9688 4.02955L60.4276 5.28738C60.5963 5.34736 60.742 5.45834 60.8446 5.60501C60.9473 5.75162 61.0016 5.9266 61.0003 6.1056Z" fill="#008CFF"/>
<path d="M369.757 49.4257C370.625 49.4257 371.514 49.3606 372.426 49.2304C373.337 49.0569 374.074 48.8833 374.638 48.7098V53.0702C374.031 53.3739 373.163 53.6126 372.035 53.7861C370.907 54.0031 369.822 54.1115 368.781 54.1115C366.959 54.1115 365.267 53.8078 363.705 53.2004C362.186 52.5496 360.95 51.4432 359.995 49.8812C359.041 48.3193 358.563 46.1282 358.563 43.3081V23.0028H353.617V20.2693L358.628 17.9915L360.906 10.5723H364.29V18.5772H374.378V23.0028H364.29V43.1779C364.29 45.3039 364.789 46.8875 365.787 47.9288C366.829 48.9267 368.152 49.4257 369.757 49.4257Z" fill="black"/>
<path d="M347.033 18.5781V53.4616H342.347L341.501 48.8408H341.241C340.113 50.6631 338.551 52.0081 336.555 52.8759C334.559 53.7002 332.433 54.1124 330.177 54.1124C325.969 54.1124 322.801 53.1145 320.675 51.1187C318.549 49.0795 317.486 45.8471 317.486 41.4216V18.5781H323.279V41.0311C323.279 46.5847 325.86 49.3615 331.023 49.3615C334.885 49.3615 337.553 48.2768 339.028 46.1074C340.547 43.9381 341.306 40.8142 341.306 36.7357V18.5781H347.033Z" fill="black"/>
<path d="M308.8 35.9532C308.8 41.7238 307.325 46.1927 304.374 49.3599C301.467 52.5272 297.519 54.1109 292.529 54.1109C289.449 54.1109 286.694 53.4167 284.264 52.0283C281.878 50.5965 279.991 48.5356 278.602 45.8456C277.214 43.1122 276.52 39.8147 276.52 35.9532C276.52 30.1827 277.973 25.7355 280.88 22.6116C283.787 19.4877 287.735 17.9258 292.725 17.9258C295.892 17.9258 298.669 18.6417 301.055 20.0735C303.485 21.4619 305.372 23.5011 306.717 26.1911C308.106 28.8377 308.8 32.0918 308.8 35.9532ZM282.442 35.9532C282.442 40.075 283.245 43.3508 284.85 45.7805C286.499 48.1668 289.102 49.3599 292.66 49.3599C296.174 49.3599 298.756 48.1668 300.404 45.7805C302.053 43.3508 302.877 40.075 302.877 35.9532C302.877 31.8314 302.053 28.5991 300.404 26.2562C298.756 23.9132 296.152 22.7418 292.595 22.7418C289.037 22.7418 286.455 23.9132 284.85 26.2562C283.245 28.5991 282.442 31.8314 282.442 35.9532Z" fill="black"/>
<path d="M261.196 54.1109C258.115 54.1109 255.36 53.4817 252.931 52.2235C250.544 50.9653 248.657 49.0128 247.268 46.3662C245.923 43.7196 245.251 40.3354 245.251 36.2136C245.251 31.9182 245.967 28.4255 247.399 25.7355C248.83 23.0455 250.761 21.0714 253.191 19.8131C255.664 18.5549 258.462 17.9258 261.586 17.9258C263.365 17.9258 265.079 18.121 266.728 18.5115C268.376 18.8586 269.721 19.2925 270.763 19.8131L269.006 24.564C267.964 24.1736 266.749 23.8048 265.361 23.4577C263.973 23.1106 262.671 22.937 261.456 22.937C254.601 22.937 251.173 27.3408 251.173 36.1485C251.173 40.3571 251.998 43.5894 253.646 45.8456C255.339 48.0583 257.833 49.1647 261.131 49.1647C263.04 49.1647 264.71 48.9695 266.142 48.579C267.617 48.1885 268.962 47.7112 270.177 47.1472V52.2235C269.006 52.8309 267.704 53.2865 266.272 53.5902C264.884 53.9373 263.192 54.1109 261.196 54.1109Z" fill="black"/>
<path d="M238.774 43.828C238.774 47.2123 237.515 49.7721 234.999 51.5076C232.483 53.2431 229.098 54.1109 224.846 54.1109C222.417 54.1109 220.312 53.9156 218.533 53.5251C216.798 53.1346 215.258 52.5923 213.913 51.8981V46.6916C215.301 47.3858 216.972 48.0366 218.924 48.6441C220.92 49.2081 222.937 49.4901 224.977 49.4901C227.883 49.4901 229.988 49.0345 231.289 48.1234C232.591 47.1689 233.242 45.9106 233.242 44.3487C233.242 43.481 233.003 42.7 232.526 42.0058C232.049 41.3116 231.181 40.6174 229.923 39.9232C228.708 39.229 226.951 38.448 224.651 37.5803C222.395 36.7125 220.464 35.8448 218.859 34.977C217.254 34.1093 216.017 33.068 215.149 31.8531C214.282 30.6383 213.848 29.0763 213.848 27.1673C213.848 24.2169 215.041 21.9391 217.427 20.3338C219.857 18.7284 223.024 17.9258 226.929 17.9258C229.055 17.9258 231.029 18.1427 232.851 18.5766C234.717 18.9671 236.452 19.5311 238.058 20.2687L236.105 24.8244C234.63 24.2169 233.09 23.6963 231.485 23.2624C229.879 22.8286 228.231 22.6116 226.538 22.6116C224.196 22.6116 222.395 23.0021 221.137 23.7831C219.922 24.5207 219.314 25.5403 219.314 26.8419C219.314 27.7964 219.596 28.6208 220.161 29.315C220.725 29.9658 221.657 30.6166 222.959 31.2674C224.304 31.8748 226.083 32.6124 228.296 33.4802C230.508 34.3045 232.396 35.1506 233.958 36.0183C235.52 36.8861 236.713 37.9491 237.537 39.2073C238.362 40.4221 238.774 41.9624 238.774 43.828Z" fill="black"/>
<path d="M181.748 16.04C181.748 17.5152 181.704 18.9036 181.617 20.2052C181.574 21.4634 181.509 22.4613 181.422 23.1989H181.748C182.746 21.7237 184.112 20.4872 185.848 19.4893C187.583 18.4914 189.818 17.9924 192.551 17.9924C196.89 17.9924 200.361 19.511 202.964 22.5481C205.611 25.5418 206.934 30.0324 206.934 36.0199C206.934 42.0074 205.611 46.5196 202.964 49.5568C200.317 52.5939 196.846 54.1124 192.551 54.1124C189.818 54.1124 187.583 53.6135 185.848 52.6156C184.112 51.6177 182.746 50.4245 181.748 49.0361H181.292L180.121 53.4616H176.021V4H181.748V16.04ZM191.575 22.7434C187.887 22.7434 185.327 23.8063 183.895 25.9323C182.464 28.0583 181.748 31.3557 181.748 35.8246V36.085C181.748 40.3803 182.442 43.6778 183.83 45.9773C185.262 48.2335 187.887 49.3615 191.705 49.3615C194.829 49.3615 197.15 48.2118 198.669 45.9122C200.231 43.6127 201.012 40.2936 201.012 35.9548C201.012 27.1472 197.866 22.7434 191.575 22.7434Z" fill="black"/>
<path d="M152.757 17.9258C155.751 17.9258 158.311 18.5766 160.437 19.8782C162.606 21.1798 164.255 23.0238 165.383 25.4101C166.554 27.753 167.14 30.5081 167.14 33.6754V37.1247H143.255C143.342 41.073 144.34 44.0884 146.249 46.171C148.202 48.2102 150.913 49.2298 154.384 49.2298C156.597 49.2298 158.549 49.0345 160.242 48.6441C161.977 48.2102 163.756 47.6028 165.578 46.8218V51.833C163.799 52.614 162.042 53.178 160.307 53.5251C158.571 53.9156 156.51 54.1109 154.124 54.1109C150.826 54.1109 147.898 53.4384 145.338 52.0934C142.822 50.7483 140.847 48.7525 139.416 46.1059C138.027 43.4159 137.333 40.1401 137.333 36.2786C137.333 32.4606 137.962 29.1848 139.22 26.4514C140.522 23.718 142.323 21.6137 144.622 20.1385C146.965 18.6634 149.677 17.9258 152.757 17.9258ZM152.692 22.6116C149.959 22.6116 147.789 23.5011 146.184 25.2799C144.622 27.0154 143.689 29.4451 143.386 32.569H161.153C161.109 29.6187 160.415 27.2324 159.07 25.4101C157.725 23.5444 155.599 22.6116 152.692 22.6116Z" fill="black"/>
<path d="M134.199 6.99219L121.834 53.4601H115.911L106.865 23.0021C106.518 21.7439 106.171 20.4857 105.824 19.2274C105.477 17.9692 105.195 16.8628 104.978 15.9083C104.761 14.9104 104.609 14.2162 104.522 13.8257C104.479 14.3897 104.24 15.6046 103.806 17.4702C103.416 19.2925 102.917 21.2016 102.309 23.1974L93.5235 53.4601H87.6011L75.3008 6.99219H81.4184L88.6424 35.3675C89.1631 37.3634 89.5969 39.2941 89.944 41.1598C90.3345 43.0254 90.6382 44.7826 90.8552 46.4313C91.0721 44.7392 91.3975 42.8953 91.8314 40.8994C92.2653 38.9036 92.7642 36.9512 93.3282 35.0421L101.528 6.99219H107.581L116.107 35.2374C116.714 37.2332 117.235 39.229 117.669 41.2248C118.102 43.1773 118.428 44.9128 118.645 46.4313C118.862 44.826 119.165 43.0905 119.556 41.2248C119.946 39.3158 120.402 37.3417 120.923 35.3025L128.082 6.99219H134.199Z" fill="black"/>
<path d="M364.29 43.1777V23.0029H374.378V18.5771H364.29V10.5723H360.906L358.629 17.9922L353.617 20.2695V23.0029H358.563V43.3086L358.569 43.8301C358.625 46.4001 359.1 48.4176 359.995 49.8818C360.95 51.4437 362.187 52.5494 363.705 53.2002C365.072 53.7316 366.538 54.0312 368.104 54.0977L368.781 54.1113C369.823 54.1113 370.907 54.0031 372.035 53.7861C373.163 53.6126 374.031 53.374 374.639 53.0703V48.71C374.075 48.8835 373.337 49.0569 372.426 49.2305L371.746 49.3164C371.071 49.3896 370.408 49.4258 369.758 49.4258V48.4258C370.57 48.4258 371.405 48.3643 372.266 48.2422C373.145 48.0739 373.835 47.9107 374.345 47.7539L375.639 47.3564V53.6885L375.086 53.9648C374.351 54.3322 373.378 54.5877 372.223 54.7676L372.224 54.7686C371.04 54.9962 369.892 55.1113 368.781 55.1113C366.967 55.1113 365.257 54.8281 363.66 54.252L363.343 54.1328L363.326 54.126L363.311 54.1201C361.689 53.4251 360.367 52.2769 359.343 50.7197L359.142 50.4033C358.053 48.6213 357.564 46.2211 357.563 43.3086V24.0029H352.617V19.626L357.805 17.2666L360.167 9.57227H365.29V17.5771H375.378V24.0029H365.29V43.1777C365.29 45.1547 365.754 46.4382 366.496 47.2227C367.327 48.0111 368.388 48.4258 369.758 48.4258V49.4258L369.46 49.4199C367.988 49.3615 366.763 48.8643 365.787 47.9287C364.789 46.8874 364.29 45.3035 364.29 43.1777Z" fill="black"/>
<path d="M323.278 41.0312V18.5781H317.486V41.4219C317.486 45.8474 318.55 49.0799 320.676 51.1191C322.669 52.9901 325.577 53.9836 329.4 54.1006L330.178 54.1123C332.293 54.1123 334.293 53.7508 336.18 53.0264L336.556 52.876C338.551 52.0082 340.113 50.663 341.241 48.8408H341.502L342.348 53.4619H347.033V18.5781H341.307V36.7363L341.297 37.4893C341.208 41.201 340.452 44.0736 339.028 46.1074C337.553 48.2768 334.885 49.3613 331.023 49.3613V48.3613C334.72 48.3613 336.989 47.3277 338.201 45.5459L338.209 45.5342C339.562 43.6014 340.307 40.7129 340.307 36.7363V17.5781H348.033V54.4619H341.514L341.364 53.6416L340.878 50.9893C339.805 52.1861 338.495 53.1231 336.954 53.793L336.945 53.7969L336.938 53.8008C334.815 54.6773 332.559 55.1123 330.178 55.1123C325.963 55.1123 322.588 54.145 320.218 52.0537L319.991 51.8477L319.983 51.8408C317.581 49.536 316.486 45.9838 316.486 41.4219V17.5781H324.278V41.0312C324.278 43.6713 324.894 45.4655 325.947 46.5986C326.988 47.7179 328.616 48.3613 331.023 48.3613V49.3613L330.547 49.3535C325.701 49.1854 323.278 46.4113 323.278 41.0312Z" fill="black"/>
<path d="M308.8 35.9531C308.8 32.0918 308.106 28.838 306.718 26.1914C305.373 23.5014 303.485 21.4616 301.056 20.0732C298.818 18.7309 296.238 18.0175 293.314 17.9336L292.726 17.9258C287.736 17.9258 283.788 19.4876 280.881 22.6113L280.612 22.9082C277.884 26.0146 276.521 30.3629 276.521 35.9531L276.528 36.6709C276.61 40.2248 277.301 43.2832 278.603 45.8457C279.991 48.5356 281.878 50.5966 284.265 52.0283C286.542 53.3299 289.106 54.0212 291.956 54.1025L292.53 54.1104C297.52 54.1103 301.468 52.5266 304.375 49.3594C307.325 46.1921 308.8 41.7234 308.8 35.9531ZM301.878 35.9531C301.878 32.2008 301.173 29.3259 299.858 27.2383L299.587 26.832C298.171 24.8202 295.916 23.7412 292.595 23.7412C289.273 23.7413 287.047 24.8199 285.676 26.8213C284.225 28.9382 283.442 31.9463 283.442 35.9531C283.442 39.95 284.221 43.0073 285.677 45.2178C287.096 47.2675 289.35 48.3594 292.66 48.3594V49.3594L292.004 49.3457C288.888 49.2105 286.556 48.0957 285.008 46.001L284.851 45.7803C283.245 43.3506 282.442 40.0749 282.442 35.9531C282.442 32.0891 283.148 29.0067 284.559 26.7061L284.851 26.2559C286.456 23.9132 289.037 22.7413 292.595 22.7412C296.152 22.7412 298.757 23.9129 300.405 26.2559C302.054 28.5988 302.878 31.8314 302.878 35.9531L302.868 36.7158C302.772 40.4808 301.951 43.5024 300.405 45.7803L300.247 46.001C298.593 48.2402 296.064 49.3594 292.66 49.3594V48.3594C295.925 48.3594 298.161 47.2688 299.582 45.2119C301.078 43.0029 301.878 39.9484 301.878 35.9531ZM309.8 35.9531C309.8 41.8874 308.281 46.6285 305.11 50.0352L305.111 50.0361C301.984 53.4434 297.75 55.1103 292.53 55.1104C289.496 55.1104 286.731 54.4685 284.259 53.166L283.769 52.8965L283.76 52.8916L283.75 52.8857C281.19 51.35 279.18 49.1438 277.714 46.3037L277.711 46.2988V46.2979C276.235 43.3925 275.521 39.9319 275.521 35.9531C275.521 30.0205 277.016 25.2967 280.148 21.9307C283.277 18.5687 287.51 16.9258 292.726 16.9258C296.048 16.9258 299.008 17.6785 301.57 19.2158H301.569C304.169 20.7063 306.181 22.8887 307.604 25.7266C309.086 28.5522 309.8 31.9758 309.8 35.9531Z" fill="black"/>
<path d="M251.173 36.1484C251.173 27.3408 254.601 22.9365 261.456 22.9365L261.915 22.9453C262.997 22.9832 264.145 23.1543 265.36 23.458C266.749 23.8051 267.964 24.1731 269.005 24.5635L270.763 19.8135C269.851 19.3579 268.707 18.9682 267.331 18.6455L266.728 18.5117C265.285 18.17 263.792 17.9773 262.25 17.9346L261.586 17.9258C258.462 17.9258 255.664 18.5552 253.19 19.8135C250.761 21.0717 248.83 23.0455 247.398 25.7354L247.139 26.249C245.88 28.865 245.251 32.1868 245.251 36.2139L245.259 36.9775C245.338 40.7553 246.008 43.885 247.269 46.3662C248.657 49.0126 250.544 50.9654 252.93 52.2236C255.359 53.4818 258.115 54.1103 261.195 54.1104C263.191 54.1104 264.883 53.9369 266.271 53.5898C267.703 53.2861 269.005 52.8311 270.177 52.2236V47.1475C268.962 47.7115 267.617 48.1886 266.142 48.5791C264.71 48.9695 263.04 49.165 261.131 49.165V48.165C262.975 48.165 264.553 47.9758 265.879 47.6143L265.886 47.6123C267.312 47.2348 268.601 46.7764 269.756 46.2402L271.177 45.5801V52.8311L270.637 53.1113C269.387 53.7593 268.01 54.2392 266.514 54.5596C265.022 54.9325 263.243 55.1104 261.195 55.1104C258.177 55.1103 255.425 54.5314 252.96 53.3545L252.471 53.1113L252.464 53.1084C250.041 51.8309 248.11 49.8971 246.665 47.3486L246.383 46.8311L246.377 46.8193C244.938 43.9887 244.251 40.4353 244.251 36.2139C244.251 31.8178 244.982 28.1473 246.516 25.2656C248.031 22.4178 250.1 20.2868 252.73 18.9248L252.737 18.9219C255.368 17.5837 258.325 16.9258 261.586 16.9258C263.439 16.9258 265.23 17.1288 266.958 17.5381C268.434 17.8502 269.709 18.2371 270.768 18.71L271.21 18.9189L272.011 19.3193L269.595 25.8525L268.654 25.5C267.906 25.2195 267.057 24.9484 266.104 24.6865L265.118 24.4277C263.796 24.0971 262.576 23.9365 261.456 23.9365C258.259 23.9365 256.014 24.9516 254.533 26.8545C253.015 28.805 252.173 31.8469 252.173 36.1484L252.183 36.9043C252.276 40.6087 253.068 43.3519 254.444 45.2432C255.911 47.1582 258.083 48.165 261.131 48.165V49.165L260.521 49.1514C257.524 49.0217 255.233 47.9199 253.646 45.8457C252.101 43.7305 251.279 40.7571 251.183 36.9258L251.173 36.1484Z" fill="black"/>
<path d="M238.774 43.8281C238.774 41.9625 238.361 40.4219 237.537 39.207C236.764 38.0275 235.667 37.0199 234.246 36.1836L233.958 36.0186C232.396 35.1508 230.509 34.3048 228.296 33.4805C226.083 32.6127 224.304 31.875 222.959 31.2676C221.657 30.6168 220.725 29.9652 220.161 29.3145C219.668 28.707 219.39 28.0002 219.328 27.1934L219.314 26.8418C219.314 25.6217 219.849 24.6493 220.916 23.9248L221.137 23.7832C222.395 23.0022 224.196 22.6113 226.539 22.6113L227.171 22.6221C228.642 22.6695 230.081 22.883 231.485 23.2627C233.09 23.6965 234.631 24.2169 236.105 24.8242L238.059 20.2686C236.453 19.531 234.717 18.9667 232.852 18.5762C231.257 18.1966 229.547 17.983 227.72 17.9355L226.93 17.9258C223.025 17.9258 219.857 18.7287 217.428 20.334C215.041 21.9393 213.848 24.2168 213.848 27.167C213.848 29.076 214.282 30.6387 215.149 31.8535C216.017 33.0683 217.254 34.1089 218.859 34.9766C220.465 35.8443 222.395 36.7123 224.651 37.5801C226.951 38.4478 228.708 39.2287 229.923 39.9229C231.181 40.617 232.049 41.3117 232.526 42.0059C233.004 42.7 233.242 43.481 233.242 44.3486L233.234 44.6377C233.158 46.0664 232.51 47.2282 231.29 48.123L231.036 48.2891C229.722 49.0898 227.702 49.4902 224.977 49.4902V48.4902C227.826 48.4902 229.672 48.0342 230.716 47.3037C231.758 46.5324 232.242 45.5728 232.242 44.3486C232.242 43.7605 232.103 43.2411 231.828 42.7705L231.702 42.5723C231.398 42.1298 230.817 41.6128 229.869 41.0449L229.439 40.7988L229.434 40.7949L229.427 40.791C228.423 40.2175 226.996 39.5648 225.127 38.834L224.299 38.5156L224.292 38.5137C222.294 37.745 220.534 36.9712 219.019 36.1914L218.384 35.8564C216.781 34.9899 215.482 33.9387 214.523 32.6875L214.336 32.4346C213.317 31.0082 212.848 29.2263 212.848 27.167C212.848 23.8942 214.198 21.3007 216.869 19.5039L216.876 19.499C219.516 17.7545 222.894 16.9258 226.93 16.9258C229.113 16.9258 231.157 17.1477 233.057 17.5977C234.748 17.9517 236.343 18.4448 237.84 19.0791L238.476 19.3604L239.361 19.7666L236.637 26.124L235.725 25.749C234.29 25.1584 232.79 24.6508 231.224 24.2275C229.705 23.8172 228.144 23.6114 226.539 23.6113C224.284 23.6113 222.697 23.9917 221.664 24.6328L221.656 24.6377C220.707 25.214 220.314 25.9265 220.314 26.8418L220.325 27.1133C220.371 27.7233 220.574 28.2303 220.924 28.667C221.36 29.1672 222.147 29.7399 223.379 30.3584C224.701 30.9554 226.46 31.6857 228.661 32.5488C230.62 33.279 232.342 34.0317 233.822 34.8086L234.443 35.1445C236.115 36.0732 237.436 37.2348 238.364 38.6455C239.328 40.0658 239.774 41.8164 239.774 43.8281L239.77 44.1699C239.685 47.6792 238.299 50.4474 235.567 52.3311C232.83 54.2187 229.225 55.1103 224.847 55.1104C222.677 55.1104 220.737 54.9584 219.034 54.6455L218.314 54.501C216.736 54.1457 215.296 53.6653 214.001 53.0557L213.454 52.7871L212.913 52.5068V45.0732L214.36 45.7969C215.683 46.4584 217.294 47.0884 219.201 47.6826C221.108 48.2211 223.033 48.4902 224.977 48.4902V49.4902L224.213 49.4766C222.433 49.4149 220.67 49.1371 218.924 48.6436C216.972 48.0362 215.301 47.3855 213.913 46.6914V51.8984C215.258 52.5926 216.799 53.1349 218.534 53.5254C220.091 53.867 221.896 54.0589 223.951 54.1016L224.847 54.1104C228.833 54.1103 232.057 53.3486 234.518 51.8232L234.999 51.5078C237.358 49.8808 238.611 47.5291 238.759 44.4531L238.774 43.8281Z" fill="black"/>
<path d="M176.021 4V53.4619H180.121L181.292 49.0361H181.748C182.746 50.4245 184.112 51.6183 185.848 52.6162C187.583 53.6141 189.818 54.1123 192.551 54.1123C196.846 54.1123 200.317 52.5938 202.964 49.5566C205.528 46.6144 206.851 42.2882 206.931 36.5771L206.935 36.0205C206.935 30.0331 205.61 25.5426 202.964 22.5488C200.442 19.6065 197.106 18.0889 192.955 17.9971L192.551 17.9932C189.818 17.9932 187.583 18.4914 185.848 19.4893C184.112 20.4871 182.746 21.7241 181.748 23.1992H181.422C181.509 22.4616 181.574 21.4633 181.617 20.2051C181.682 19.2291 181.723 18.2044 181.739 17.1309L181.748 16.04V4H176.021ZM181.748 36.085V35.8252C181.748 31.6354 182.377 28.4751 183.636 26.3447L183.896 25.9326C185.327 23.8067 187.887 22.7432 191.575 22.7432L192.155 22.7568C198.06 23.0233 201.012 27.4226 201.012 35.9551C201.012 40.2936 200.231 43.6126 198.669 45.9121C197.15 48.2116 194.829 49.3613 191.705 49.3613V48.3613C194.546 48.3613 196.528 47.3393 197.834 45.3613L197.842 45.3506L198.097 44.9512C199.337 42.895 200.012 39.9323 200.012 35.9551C200.012 31.6402 199.236 28.5837 197.839 26.6279C196.486 24.7342 194.458 23.7432 191.575 23.7432C188.063 23.7432 185.897 24.7499 184.725 26.4912C183.46 28.3697 182.748 31.4249 182.748 35.8252V36.085L182.756 36.8623C182.836 40.6708 183.508 43.5011 184.679 45.4473C185.856 47.2976 188.073 48.3613 191.705 48.3613V49.3613C187.887 49.3613 185.262 48.2337 183.83 45.9775C182.529 43.8217 181.837 40.7888 181.756 36.8789L181.748 36.085ZM182.748 16.04L182.739 17.1455C182.723 18.223 182.681 19.2543 182.616 20.2393C182.611 20.3811 182.605 20.5205 182.6 20.6562C183.4 19.893 184.318 19.2161 185.35 18.623C187.282 17.5118 189.704 16.9932 192.551 16.9932C197.153 16.9932 200.913 18.6183 203.724 21.8975C206.589 25.1462 207.935 29.9141 207.935 36.0205L207.93 36.5898C207.848 42.433 206.495 47.0268 203.718 50.2139C200.867 53.4847 197.113 55.1123 192.551 55.1123C189.882 55.1123 187.587 54.657 185.718 53.6846L185.35 53.4824C183.99 52.7008 182.826 51.7952 181.869 50.7607L180.891 54.4619H175.021V3H182.748V16.04Z" fill="black"/>
<path d="M167.14 33.6758C167.14 30.7066 166.625 28.0992 165.596 25.8545L165.383 25.4102C164.255 23.0238 162.606 21.1796 160.437 19.8779C158.443 18.6578 156.069 18.0099 153.313 17.9336L152.757 17.9258C149.676 17.9258 146.965 18.6636 144.622 20.1387C142.323 21.6138 140.522 23.7179 139.221 26.4512C137.962 29.1845 137.333 32.4603 137.333 36.2783L137.341 36.9961C137.422 40.5474 138.114 43.5837 139.416 46.1055C140.848 48.752 142.822 50.7478 145.338 52.0928C147.738 53.3537 150.462 54.0237 153.51 54.1025L154.124 54.1104C156.212 54.1103 158.051 53.9611 159.641 53.6621L160.307 53.5254C162.042 53.1783 163.799 52.614 165.578 51.833V46.8213C163.756 47.6023 161.977 48.2097 160.241 48.6436C158.549 49.034 156.596 49.2295 154.384 49.2295V48.2295C156.534 48.2295 158.404 48.0402 160.002 47.6729C161.68 47.2533 163.407 46.6641 165.185 45.9023L166.578 45.3047V52.4863L165.98 52.749C164.15 53.5528 162.331 54.1371 160.525 54.5C158.698 54.911 156.561 55.1103 154.124 55.1104C150.902 55.1104 147.983 54.4939 145.388 53.2383L144.873 52.9785L144.866 52.9756C142.336 51.6232 140.322 49.6558 138.828 47.1006L138.536 46.582L138.531 46.5732L138.527 46.5645C137.048 43.699 136.333 40.2566 136.333 36.2783C136.333 32.3536 136.979 28.9279 138.312 26.0332L138.317 26.0215L138.581 25.4883C139.932 22.8591 141.763 20.7843 144.082 19.2969L144.089 19.292C146.609 17.7053 149.51 16.9258 152.757 16.9258C155.894 16.9258 158.64 17.6084 160.95 19.0205H160.951C163.295 20.4267 165.074 22.4212 166.282 24.9736C167.533 27.4791 168.14 30.39 168.14 33.6758V38.125H144.303C144.523 41.3964 145.449 43.8125 146.979 45.4863C148.7 47.2802 151.123 48.2294 154.384 48.2295V49.2295C151.13 49.2294 148.543 48.3333 146.624 46.541L146.249 46.1709C144.34 44.0884 143.342 41.0731 143.255 37.125H167.14V33.6758ZM153.228 22.6221C155.862 22.7313 157.809 23.661 159.07 25.4102C160.415 27.2324 161.109 29.6191 161.152 32.5693H143.386C143.689 29.4457 144.622 27.0157 146.184 25.2803C147.789 23.5014 149.959 22.6113 152.692 22.6113L153.228 22.6221ZM152.692 23.6113C150.199 23.6113 148.315 24.4108 146.927 25.9482C145.724 27.2844 144.901 29.1348 144.519 31.5693H160.108C159.952 29.4161 159.395 27.6788 158.482 26.3125L158.266 26.0039L158.259 25.9951C157.151 24.4584 155.372 23.6114 152.692 23.6113Z" fill="black"/>
<path d="M82.1953 5.99219L89.6094 35.1152C90.105 37.015 90.5214 38.8594 90.8623 40.6475C91.2992 38.6421 91.8017 36.6793 92.3691 34.7588L100.778 5.99219H108.323L117.062 34.9463C117.662 36.916 118.177 38.887 118.61 40.8584C118.997 38.9841 119.444 37.0493 119.953 35.0547L127.303 5.99219H135.5L122.603 54.46H115.165L105.906 23.2871L105.9 23.2676C105.553 22.0095 105.206 20.7512 104.859 19.4932C104.767 19.1588 104.68 18.8344 104.597 18.5205C104.232 20.112 103.789 21.7633 103.269 23.4746L103.27 23.4756L94.2744 54.46H86.8311L74.001 5.99219H82.1953ZM75.3008 6.99219L87.6006 53.46H93.5234L102.31 23.1973C102.917 21.2015 103.415 19.292 103.806 17.4697C104.239 15.6042 104.478 14.3892 104.521 13.8252C104.608 14.2157 104.761 14.9103 104.978 15.9082C105.194 16.8627 105.476 17.9693 105.823 19.2275C106.17 20.4857 106.518 21.7438 106.865 23.002L115.911 53.46H121.833L134.199 6.99219H128.081L120.922 35.3027C120.401 37.3417 119.946 39.3157 119.556 41.2246C119.165 43.0903 118.861 44.8263 118.645 46.4316C118.428 44.9131 118.102 43.177 117.668 41.2246C117.288 39.4782 116.843 37.7317 116.33 35.9854L116.106 35.2373L107.581 6.99219H101.528L93.3281 35.042C92.7641 36.951 92.2649 38.9036 91.8311 40.8994L91.5264 42.3682C91.2417 43.8079 91.0172 45.1627 90.8545 46.4316C90.6376 44.7829 90.3338 43.0248 89.9434 41.1592C89.5963 39.2937 89.1632 37.3628 88.6426 35.3672L81.418 6.99219H75.3008Z" fill="black"/>
<defs>
<linearGradient id="paint0_linear_353_4734" x1="30.4712" y1="55.3094" x2="29.9776" y2="28.9942" gradientUnits="userSpaceOnUse">
<stop stop-color="#45D1FC"/>
<stop offset="1" stop-color="#008CFF"/>
</linearGradient>
<linearGradient id="paint1_linear_353_4734" x1="61.3784" y1="29.7222" x2="31.4317" y2="29.7222" gradientUnits="userSpaceOnUse">
<stop stop-color="#008CFF"/>
<stop offset="1" stop-color="#078EFF"/>
</linearGradient>
</defs>
</svg>
