<svg width="376" height="60" viewBox="0 0 376 60" fill="none" xmlns="http://www.w3.org/2000/svg">
<path d="M39.0498 46.5081C38.1571 46.5081 37.2643 46.3121 36.4369 45.9637C34.399 44.9923 32.6943 43.4391 31.5379 41.5001C33.551 37.6962 34.6049 33.4582 34.608 29.1545V28.9585C34.608 27.6303 34.3902 26.2586 33.9547 24.9957C33.4104 23.5369 32.5612 22.0562 31.2113 21.5119C30.9803 21.4 30.7275 21.3405 30.471 21.3377C28.7944 18.1588 28.7291 15.1322 30.471 12.2363H30.5798C32.6483 12.2581 34.6733 12.8895 36.4369 14.0218C41.1836 17.0483 43.5787 22.949 43.6223 28.7408V28.9585H43.644C43.644 35.0551 42.1634 41.2606 39.0716 46.4863L39.0498 46.5081ZM28.4896 56.1102C26.2557 57.0212 23.8587 57.4641 21.4468 57.4117C19.035 57.3592 16.6595 56.8125 14.4673 55.8054C9.39406 53.4538 5.51836 48.8596 3.14503 43.6339C1.12822 39.1317 0.0585189 34.2629 0.00233444 29.3299C-0.05385 24.3969 0.904686 19.505 2.81842 14.958C5.73609 16.112 8.30538 14.2613 8.30538 14.2613C8.30538 14.2613 8.30538 17.1136 11.0706 18.5507C9.67727 21.8759 8.96512 25.4469 8.97634 29.0522C8.98756 32.6575 9.72192 36.224 11.136 39.5405C12.3876 42.6999 14.615 45.3774 17.4939 47.183C18.5172 47.7709 19.6712 48.1411 20.8252 48.2717V48.3153C22.8937 51.516 25.5066 54.1942 28.4896 56.1102Z" fill="url(#paint0_linear_354_4802)"/>
<path d="M17.3416 28.9579V28.7402C17.3851 22.9702 19.7584 17.0695 24.5269 14.0212C26.3054 12.894 28.3654 12.2903 30.4711 12.2793V21.3371C30.2178 21.3263 29.9651 21.3709 29.7308 21.4678C28.3808 22.0339 27.5316 23.5145 26.9873 24.9516C26.5518 26.2362 26.3341 27.6079 26.3341 28.9361V29.1103L26.3123 29.3281C26.3559 32.7465 26.9873 36.2085 28.359 39.344C29.8832 42.8931 32.2783 46.1373 35.6968 47.6179C38.2661 48.7502 41.1184 48.4889 43.4482 47.1607C46.3271 45.355 48.5545 42.6776 49.8061 39.5181C52.6367 33.0514 52.702 25.1475 49.8714 18.5283C52.6367 17.0913 52.6367 14.2389 52.6367 14.2389C52.6367 14.2389 55.206 16.0897 58.1236 14.9357C60.0421 19.4809 61.005 24.3721 60.9525 29.3053C60.9001 34.2385 59.8334 39.1082 57.8188 43.6116C55.4237 48.8373 51.548 53.4097 46.4965 55.7831C44.2476 56.8193 41.8057 57.3703 39.3297 57.4003C36.8538 57.4303 34.3992 56.9386 32.1259 55.9573C28.0997 54.0891 24.7141 51.0746 22.3931 47.2913C19.0019 41.7751 17.2429 35.4109 17.3198 28.9361L17.3416 28.9579Z" fill="url(#paint1_linear_354_4802)"/>
<path d="M61.0003 6.1056C61.0016 6.2846 60.9473 6.45958 60.8446 6.60619C60.742 6.75287 60.5963 6.86385 60.4276 6.92382L56.9683 8.18223L55.7107 11.6422C55.6488 11.8092 55.5372 11.9533 55.3909 12.055C55.2448 12.1567 55.0709 12.2112 54.8928 12.2112C54.7147 12.2112 54.5408 12.1567 54.3947 12.055C54.2484 11.9533 54.1369 11.8092 54.0749 11.6422L52.8174 8.18165L49.358 6.92382C49.191 6.86183 49.0469 6.75021 48.9453 6.60389C48.8436 6.45764 48.7891 6.28374 48.7891 6.1056C48.7891 5.92746 48.8436 5.75356 48.9453 5.60731C49.0469 5.46099 49.191 5.34937 49.358 5.28738L52.8174 4.02955L54.0749 0.569049C54.1369 0.402022 54.2484 0.257973 54.3947 0.156246C54.5408 0.0545268 54.7147 0 54.8928 0C55.0709 0 55.2448 0.0545268 55.3909 0.156246C55.5372 0.257973 55.6488 0.402022 55.7107 0.569049L56.9688 4.02955L60.4276 5.28738C60.5963 5.34736 60.742 5.45834 60.8446 5.60501C60.9473 5.75162 61.0016 5.9266 61.0003 6.1056Z" fill="#008CFF"/>
<path d="M74.1122 11.5576H77.576L84.9803 53.7904L99.6616 11.5576H102.998L118.093 54.2035L126.514 11.5576H129.724L120.54 57H115.709L101.346 15.4981L86.9505 57H82.2156L74.1122 11.5576ZM150.951 23.6332C160.082 23.6332 164.647 28.6859 164.647 38.7913C164.647 39.5116 164.626 40.2637 164.584 41.0475H139.257C139.257 49.7758 143.875 54.14 153.112 54.14C156.904 54.14 160.273 53.6104 163.217 52.5511V55.4111C160.273 56.4704 156.904 57 153.112 57C141.651 57 135.92 51.3118 135.92 39.9353C135.92 29.0672 140.931 23.6332 150.951 23.6332ZM139.257 38.0604H161.438C161.311 30.3066 157.815 26.4297 150.951 26.4297C143.536 26.4297 139.638 30.3066 139.257 38.0604ZM176.564 53.0913C179.975 53.7057 183.057 54.0129 185.811 54.0129C194.497 54.0129 198.84 49.1509 198.84 39.4268C198.84 31.0163 194.847 26.811 186.86 26.811C183.809 26.811 180.377 27.383 176.564 28.527V53.0913ZM173.227 11.5576H176.564V25.2221C180.568 24.1629 184.011 23.6332 186.892 23.6332C197.018 23.6332 202.082 28.9719 202.082 39.6493C202.082 51.2164 196.754 57 186.097 57C181.31 57 177.02 56.5445 173.227 55.6336V11.5576ZM210.026 55.4111V52.2333C213.734 53.5044 217.377 54.14 220.958 54.14C227.97 54.14 231.476 51.9155 231.476 47.4666C231.476 43.8651 228.881 42.0644 223.691 42.0644H219.432C212.441 42.0644 208.946 39.0985 208.946 33.1666C208.946 26.811 213.575 23.6332 222.833 23.6332C226.392 23.6332 230.025 24.1629 233.732 25.2221V28.3999C230.025 27.1288 226.392 26.4932 222.833 26.4932C215.799 26.4932 212.282 28.7177 212.282 33.1666C212.282 36.9799 214.666 38.8866 219.432 38.8866H223.691C231.106 38.8866 234.813 41.7466 234.813 47.4666C234.813 53.8222 230.195 57 220.958 57C217.377 57 213.734 56.4704 210.026 55.4111ZM267.544 56.0467C264.79 56.6822 261.824 57 258.646 57C247.418 57 241.804 51.227 241.804 39.6811C241.804 28.9825 247.418 23.6332 258.646 23.6332C261.824 23.6332 264.79 23.951 267.544 24.5866V27.4466C264.578 26.811 261.718 26.4932 258.964 26.4932C249.96 26.4932 245.459 30.8892 245.459 39.6811C245.459 49.3203 249.96 54.14 258.964 54.14C261.718 54.14 264.578 53.8222 267.544 53.1867V56.0467ZM277.109 40.1895C277.109 49.7017 281.187 54.4578 289.344 54.4578C297.5 54.4578 301.578 49.7017 301.578 40.1895C301.578 30.8468 297.5 26.1755 289.344 26.1755C281.187 26.1755 277.109 30.8468 277.109 40.1895ZM273.773 40.3166C273.773 28.9825 278.963 23.3155 289.344 23.3155C299.725 23.3155 304.915 28.9825 304.915 40.3166C304.915 51.6295 299.725 57.286 289.344 57.286C279.005 57.286 273.815 51.6295 273.773 40.3166ZM340.983 23.6332V57H338.536L338.155 52.7418C334.32 55.5806 330.041 57 325.316 57C317.435 57 313.495 52.8583 313.495 44.5749V23.6332H316.832V44.6702C316.832 50.8986 319.713 54.0129 325.475 54.0129C329.691 54.0129 333.748 52.6041 337.646 49.7864V23.6332H340.983ZM351.056 18.231H353.408L354.012 23.6332H364.022V26.4932H354.298V47.562C354.298 51.9473 355.908 54.14 359.128 54.14H364.022V57H359.192C353.768 57 351.056 54.0023 351.056 48.0069V18.231Z" fill="black"/>
<path d="M74.1122 11.5576V9.55764C73.5204 9.55764 72.9589 9.81979 72.5789 10.2735C72.1989 10.7273 72.0394 11.3261 72.1433 11.9087L74.1122 11.5576ZM77.576 11.5576L79.546 11.2123C79.3782 10.2555 78.5473 9.55764 77.576 9.55764V11.5576ZM84.9803 53.7904L83.0103 54.1358C83.1676 55.0331 83.9114 55.7107 84.8194 55.784C85.7274 55.8572 86.5702 55.3076 86.8694 54.4471L84.9803 53.7904ZM99.6616 11.5576V9.55764C98.8102 9.55764 98.0521 10.0967 97.7725 10.9009L99.6616 11.5576ZM102.998 11.5576L104.884 10.8903C104.601 10.0916 103.846 9.55764 102.998 9.55764V11.5576ZM118.093 54.2035L116.207 54.8709C116.508 55.7202 117.339 56.2636 118.238 56.1983C119.136 56.1329 119.88 55.4748 120.055 54.591L118.093 54.2035ZM126.514 11.5576V9.55764C125.559 9.55764 124.737 10.2331 124.552 11.1702L126.514 11.5576ZM129.724 11.5576L131.684 11.9538C131.803 11.3658 131.651 10.7555 131.271 10.2912C130.892 9.82692 130.323 9.55764 129.724 9.55764V11.5576ZM120.54 57V59C121.492 59 122.312 58.3292 122.5 57.3962L120.54 57ZM115.709 57L113.819 57.6541C114.098 58.4597 114.857 59 115.709 59V57ZM101.346 15.4981L103.236 14.844C102.957 14.0386 102.199 13.4984 101.347 13.4981C100.494 13.4978 99.7356 14.0375 99.4563 14.8427L101.346 15.4981ZM86.9505 57V59C87.8024 59 88.5609 58.4603 88.84 57.6554L86.9505 57ZM82.2156 57L80.2466 57.3511C80.4168 58.3052 81.2465 59 82.2156 59V57ZM74.1122 11.5576V13.5576H77.576V11.5576V9.55764H74.1122V11.5576ZM77.576 11.5576L75.6061 11.903L83.0103 54.1358L84.9803 53.7904L86.9502 53.4451L79.546 11.2123L77.576 11.5576ZM84.9803 53.7904L86.8694 54.4471L101.551 12.2144L99.6616 11.5576L97.7725 10.9009L83.0911 53.1337L84.9803 53.7904ZM99.6616 11.5576V13.5576H102.998V11.5576V9.55764H99.6616V11.5576ZM102.998 11.5576L101.113 12.225L116.207 54.8709L118.093 54.2035L119.978 53.5362L104.884 10.8903L102.998 11.5576ZM118.093 54.2035L120.055 54.591L128.476 11.9451L126.514 11.5576L124.552 11.1702L116.131 53.8161L118.093 54.2035ZM126.514 11.5576V13.5576H129.724V11.5576V9.55764H126.514V11.5576ZM129.724 11.5576L127.763 11.1615L118.579 56.6038L120.54 57L122.5 57.3962L131.684 11.9538L129.724 11.5576ZM120.54 57V55H115.709V57V59H120.54V57ZM115.709 57L117.599 56.3459L103.236 14.844L101.346 15.4981L99.4559 16.1522L113.819 57.6541L115.709 57ZM101.346 15.4981L99.4563 14.8427L85.0609 56.3446L86.9505 57L88.84 57.6554L103.235 16.1535L101.346 15.4981ZM86.9505 57V55H82.2156V57V59H86.9505V57ZM82.2156 57L84.1845 56.6489L76.0812 11.2065L74.1122 11.5576L72.1433 11.9087L80.2466 57.3511L82.2156 57ZM164.584 41.0475V43.0475C165.646 43.0475 166.524 42.2165 166.581 41.1555L164.584 41.0475ZM139.257 41.0475V39.0475C138.152 39.0475 137.257 39.9429 137.257 41.0475H139.257ZM163.217 52.5511H165.217C165.217 51.8999 164.9 51.2895 164.368 50.915C163.835 50.5404 163.153 50.4487 162.54 50.6692L163.217 52.5511ZM163.217 55.4111L163.894 57.2931C164.688 57.0075 165.217 56.2547 165.217 55.4111H163.217ZM139.257 38.0604L137.259 37.9621C137.232 38.509 137.431 39.0429 137.808 39.4394C138.186 39.836 138.709 40.0604 139.257 40.0604V38.0604ZM161.438 38.0604V40.0604C161.974 40.0604 162.488 39.8451 162.864 39.463C163.24 39.0808 163.446 38.5636 163.438 38.0276L161.438 38.0604ZM150.951 23.6332V25.6332C155.153 25.6332 157.953 26.7865 159.739 28.7636C161.561 30.7792 162.647 33.9996 162.647 38.7913H164.647H166.647C166.647 33.4776 165.451 29.1189 162.707 26.0819C159.928 23.0063 155.88 21.6332 150.951 21.6332V23.6332ZM164.647 38.7913H162.647C162.647 39.4725 162.627 40.1885 162.587 40.9396L164.584 41.0475L166.581 41.1555C166.625 40.3388 166.647 39.5506 166.647 38.7913H164.647ZM164.584 41.0475V39.0475H139.257V41.0475V43.0475H164.584V41.0475ZM139.257 41.0475H137.257C137.257 45.7498 138.506 49.6363 141.347 52.3205C144.166 54.9847 148.213 56.14 153.112 56.14V54.14V52.14C148.775 52.14 145.893 51.1132 144.094 49.4132C142.316 47.7333 141.257 45.0735 141.257 41.0475H139.257ZM153.112 54.14V56.14C157.088 56.14 160.692 55.585 163.894 54.433L163.217 52.5511L162.54 50.6692C159.853 51.6357 156.721 52.14 153.112 52.14V54.14ZM163.217 52.5511H161.217V55.4111H163.217H165.217V52.5511H163.217ZM163.217 55.4111L162.54 53.5292C159.853 54.4957 156.721 55 153.112 55V57V59C157.088 59 160.692 58.445 163.894 57.2931L163.217 55.4111ZM153.112 57V55C147.686 55 143.985 53.6544 141.627 51.3144C139.272 48.9771 137.92 45.3115 137.92 39.9353H135.92H133.92C133.92 45.9356 135.433 50.8023 138.809 54.1533C142.182 57.5015 147.077 59 153.112 59V57ZM135.92 39.9353H137.92C137.92 34.7711 139.114 31.2708 141.148 29.0645C143.154 26.8888 146.293 25.6332 150.951 25.6332V23.6332V21.6332C145.589 21.6332 141.212 23.0947 138.208 26.353C135.232 29.5807 133.92 34.2314 133.92 39.9353H135.92ZM139.257 38.0604V40.0604H161.438V38.0604V36.0604H139.257V38.0604ZM161.438 38.0604L163.438 38.0276C163.37 33.8956 162.403 30.435 160.206 27.9981C157.969 25.517 154.761 24.4297 150.951 24.4297V26.4297V28.4297C154.005 28.4297 155.977 29.2808 157.235 30.6766C158.534 32.1166 159.379 34.4713 159.438 38.0932L161.438 38.0604ZM150.951 26.4297V24.4297C146.905 24.4297 143.496 25.493 141.056 27.9193C138.631 30.3309 137.464 33.7922 137.259 37.9621L139.257 38.0604L141.254 38.1586C141.431 34.5748 142.404 32.2207 143.877 30.7554C145.335 29.3048 147.583 28.4297 150.951 28.4297V26.4297ZM176.564 53.0913H174.564C174.564 54.0591 175.257 54.8881 176.21 55.0596L176.564 53.0913ZM176.564 28.527L175.989 26.6114C175.143 26.8652 174.564 27.6438 174.564 28.527H176.564ZM173.227 11.5576V9.55764C172.123 9.55764 171.227 10.4531 171.227 11.5576H173.227ZM176.564 11.5576H178.564C178.564 10.4531 177.669 9.55764 176.564 9.55764V11.5576ZM176.564 25.2221H174.564C174.564 25.8428 174.852 26.4283 175.344 26.8069C175.836 27.1855 176.476 27.3143 177.076 27.1556L176.564 25.2221ZM173.227 55.6336H171.227C171.227 56.5582 171.861 57.3623 172.76 57.5782L173.227 55.6336ZM176.564 53.0913L176.21 55.0596C179.709 55.69 182.913 56.0129 185.811 56.0129V54.0129V52.0129C183.202 52.0129 180.241 51.7214 176.919 51.123L176.564 53.0913ZM185.811 54.0129V56.0129C190.525 56.0129 194.409 54.6833 197.075 51.6987C199.702 48.7571 200.84 44.545 200.84 39.4268H198.84H196.84C196.84 44.0327 195.807 47.1136 194.092 49.034C192.415 50.9114 189.784 52.0129 185.811 52.0129V54.0129ZM198.84 39.4268H200.84C200.84 34.9383 199.777 31.2004 197.296 28.5878C194.796 25.9558 191.189 24.811 186.86 24.811V26.811V28.811C190.518 28.811 192.901 29.7689 194.395 31.3422C195.907 32.9348 196.84 35.5048 196.84 39.4268H198.84ZM186.86 26.811V24.811C183.566 24.811 179.936 25.4275 175.989 26.6114L176.564 28.527L177.139 30.4427C180.819 29.3386 184.053 28.811 186.86 28.811V26.811ZM176.564 28.527H174.564V53.0913H176.564H178.564V28.527H176.564ZM173.227 11.5576V13.5576H176.564V11.5576V9.55764H173.227V11.5576ZM176.564 11.5576H174.564V25.2221H176.564H178.564V11.5576H176.564ZM176.564 25.2221L177.076 27.1556C180.979 26.123 184.24 25.6332 186.892 25.6332V23.6332V21.6332C183.781 21.6332 180.157 22.2027 176.053 23.2886L176.564 25.2221ZM186.892 23.6332V25.6332C191.619 25.6332 194.804 26.8741 196.833 29.0135C198.881 31.1728 200.082 34.5932 200.082 39.6493H202.082H204.082C204.082 34.028 202.751 29.4403 199.735 26.261C196.701 23.0617 192.291 21.6332 186.892 21.6332V23.6332ZM202.082 39.6493H200.082C200.082 45.1634 198.808 48.9261 196.615 51.3072C194.45 53.6573 191.073 55 186.097 55V57V59C191.778 59 196.394 57.4509 199.557 54.0174C202.691 50.615 204.082 45.7023 204.082 39.6493H202.082ZM186.097 57V55C181.433 55 177.304 54.5559 173.695 53.6889L173.227 55.6336L172.76 57.5782C176.735 58.5331 181.186 59 186.097 59V57ZM173.227 55.6336H175.227V11.5576H173.227H171.227V55.6336H173.227ZM210.026 55.4111H208.026C208.026 56.3041 208.618 57.0888 209.477 57.3342L210.026 55.4111ZM210.026 52.2333L210.675 50.3414C210.064 50.1319 209.389 50.2304 208.864 50.6059C208.338 50.9813 208.026 51.5874 208.026 52.2333H210.026ZM233.732 25.2221H235.732C235.732 24.3292 235.141 23.5444 234.282 23.2991L233.732 25.2221ZM233.732 28.3999L233.084 30.2918C233.695 30.5013 234.369 30.4028 234.895 30.0274C235.421 29.652 235.732 29.0458 235.732 28.3999H233.732ZM210.026 55.4111H212.026V52.2333H210.026H208.026V55.4111H210.026ZM210.026 52.2333L209.378 54.1252C213.274 55.4612 217.137 56.14 220.958 56.14V54.14V52.14C217.618 52.14 214.193 51.5477 210.675 50.3414L210.026 52.2333ZM220.958 54.14V56.14C224.611 56.14 227.693 55.5722 229.918 54.1604C232.297 52.651 233.476 50.3172 233.476 47.4666H231.476H229.476C229.476 49.065 228.902 50.0679 227.775 50.7829C226.494 51.5956 224.317 52.14 220.958 52.14V54.14ZM231.476 47.4666H233.476C233.476 45.1168 232.588 43.1027 230.67 41.7718C228.884 40.5328 226.455 40.0644 223.691 40.0644V42.0644V44.0644C226.116 44.0644 227.58 44.4963 228.39 45.0581C229.067 45.528 229.476 46.215 229.476 47.4666H231.476ZM223.691 42.0644V40.0644H219.432V42.0644V44.0644H223.691V42.0644ZM219.432 42.0644V40.0644C216.172 40.0644 214.1 39.3659 212.861 38.3149C211.686 37.3174 210.946 35.7304 210.946 33.1666H208.946H206.946C206.946 36.5347 207.954 39.3966 210.273 41.365C212.53 43.2799 215.702 44.0644 219.432 44.0644V42.0644ZM208.946 33.1666H210.946C210.946 30.5467 211.857 28.8275 213.549 27.6654C215.378 26.4103 218.37 25.6332 222.833 25.6332V23.6332V21.6332C218.037 21.6332 214.086 22.445 211.286 24.3677C208.349 26.3835 206.946 29.4309 206.946 33.1666H208.946ZM222.833 23.6332V25.6332C226.191 25.6332 229.64 26.1327 233.183 27.1452L233.732 25.2221L234.282 23.2991C230.411 22.193 226.592 21.6332 222.833 21.6332V23.6332ZM233.732 25.2221H231.732V28.3999H233.732H235.732V25.2221H233.732ZM233.732 28.3999L234.381 26.508C230.486 25.1725 226.634 24.4932 222.833 24.4932V26.4932V28.4932C226.15 28.4932 229.564 29.0851 233.084 30.2918L233.732 28.3999ZM222.833 26.4932V24.4932C219.17 24.4932 216.081 25.0608 213.851 26.4713C211.466 27.9796 210.282 30.3133 210.282 33.1666H212.282H214.282C214.282 31.5709 214.857 30.568 215.989 29.8518C217.276 29.0379 219.462 28.4932 222.833 28.4932V26.4932ZM212.282 33.1666H210.282C210.282 35.5147 211.038 37.5926 212.821 39.0183C214.518 40.376 216.835 40.8866 219.432 40.8866V38.8866V36.8866C217.263 36.8866 216.006 36.4439 215.319 35.8949C214.718 35.414 214.282 34.6319 214.282 33.1666H212.282ZM219.432 38.8866V40.8866H223.691V38.8866V36.8866H219.432V38.8866ZM223.691 38.8866V40.8866C227.197 40.8866 229.459 41.5724 230.811 42.6152C232.064 43.5821 232.813 45.0738 232.813 47.4666H234.813H236.813C236.813 44.1394 235.708 41.3412 233.254 39.4481C230.898 37.6308 227.599 36.8866 223.691 36.8866V38.8866ZM234.813 47.4666H232.813C232.813 50.0884 231.903 51.8078 230.215 52.969C228.393 54.2231 225.409 55 220.958 55V57V59C225.743 59 229.687 58.188 232.483 56.2643C235.414 54.2478 236.813 51.2004 236.813 47.4666H234.813ZM220.958 57V55C217.577 55 214.118 54.5002 210.576 53.4881L210.026 55.4111L209.477 57.3342C213.349 58.4406 217.178 59 220.958 59V57ZM267.544 56.0467L267.994 57.9954C268.901 57.786 269.544 56.978 269.544 56.0467H267.544ZM267.544 24.5866H269.544C269.544 23.6553 268.901 22.8472 267.994 22.6378L267.544 24.5866ZM267.544 27.4466L267.125 29.4022C267.716 29.5287 268.332 29.3816 268.801 29.0019C269.271 28.6222 269.544 28.0506 269.544 27.4466H267.544ZM267.544 53.1867H269.544C269.544 52.5827 269.271 52.011 268.801 51.6313C268.332 51.2516 267.716 51.1045 267.125 51.231L267.544 53.1867ZM267.544 56.0467L267.094 54.0979C264.505 54.6955 261.691 55 258.646 55V57V59C261.957 59 265.075 58.6689 267.994 57.9954L267.544 56.0467ZM258.646 57V55C253.355 55 249.75 53.643 247.448 51.2759C245.136 48.8985 243.804 45.1595 243.804 39.6811H241.804H239.804C239.804 45.7485 241.279 50.6691 244.581 54.0646C247.893 57.4705 252.71 59 258.646 59V57ZM241.804 39.6811H243.804C243.804 34.6654 245.115 31.2647 247.394 29.0931C249.691 26.9043 253.317 25.6332 258.646 25.6332V23.6332V21.6332C252.747 21.6332 247.952 23.0368 244.635 26.1972C241.3 29.3749 239.804 33.9982 239.804 39.6811H241.804ZM258.646 23.6332V25.6332C261.691 25.6332 264.505 25.9377 267.094 26.5354L267.544 24.5866L267.994 22.6378C265.075 21.9643 261.957 21.6332 258.646 21.6332V23.6332ZM267.544 24.5866H265.544V27.4466H267.544H269.544V24.5866H267.544ZM267.544 27.4466L267.963 25.491C264.873 24.8288 261.872 24.4932 258.964 24.4932V26.4932V28.4932C261.564 28.4932 264.283 28.7932 267.125 29.4022L267.544 27.4466ZM258.964 26.4932V24.4932C254.166 24.4932 250.197 25.6644 247.438 28.3592C244.669 31.0627 243.459 34.9646 243.459 39.6811H245.459H247.459C247.459 35.6056 248.499 32.9137 250.232 31.2211C251.974 29.52 254.759 28.4932 258.964 28.4932V26.4932ZM245.459 39.6811H243.459C243.459 44.7764 244.646 48.9702 247.373 51.8905C250.125 54.8364 254.118 56.14 258.964 56.14V54.14V52.14C254.807 52.14 252.047 51.0337 250.296 49.16C248.522 47.2607 247.459 44.2251 247.459 39.6811H245.459ZM258.964 54.14V56.14C261.872 56.14 264.873 55.8044 267.963 55.1423L267.544 53.1867L267.125 51.231C264.283 51.84 261.564 52.14 258.964 52.14V54.14ZM267.544 53.1867H265.544V56.0467H267.544H269.544V53.1867H267.544ZM273.773 40.3166H271.773L271.773 40.3241L273.773 40.3166ZM277.109 40.1895H275.109C275.109 45.185 276.174 49.3049 278.65 52.1926C281.176 55.1391 284.87 56.4578 289.344 56.4578V54.4578V52.4578C285.661 52.4578 283.238 51.3984 281.686 49.5888C280.084 47.7204 279.109 44.7061 279.109 40.1895H277.109ZM289.344 54.4578V56.4578C293.817 56.4578 297.511 55.1391 300.038 52.1926C302.514 49.3049 303.578 45.185 303.578 40.1895H301.578H299.578C299.578 44.7061 298.603 47.7204 297.001 49.5888C295.45 51.3984 293.026 52.4578 289.344 52.4578V54.4578ZM301.578 40.1895H303.578C303.578 35.2715 302.511 31.2095 300.026 28.3637C297.496 25.4659 293.806 24.1755 289.344 24.1755V26.1755V28.1755C293.038 28.1755 295.465 29.2207 297.013 30.9943C298.607 32.8198 299.578 35.7648 299.578 40.1895H301.578ZM289.344 26.1755V24.1755C284.881 24.1755 281.191 25.4659 278.661 28.3637C276.177 31.2095 275.109 35.2715 275.109 40.1895H277.109H279.109C279.109 35.7648 280.081 32.8198 281.675 30.9943C283.223 29.2207 285.65 28.1755 289.344 28.1755V26.1755ZM273.773 40.3166H275.773C275.773 34.9164 277.013 31.2394 279.14 28.9166C281.237 26.627 284.509 25.3155 289.344 25.3155V23.3155V21.3155C283.798 21.3155 279.284 22.8374 276.191 26.2149C273.128 29.5591 271.773 34.3827 271.773 40.3166H273.773ZM289.344 23.3155V25.3155C294.178 25.3155 297.45 26.627 299.547 28.9166C301.675 31.2394 302.915 34.9164 302.915 40.3166H304.915H306.915C306.915 34.3827 305.56 29.5591 302.497 26.2149C299.404 22.8374 294.89 21.3155 289.344 21.3155V23.3155ZM304.915 40.3166H302.915C302.915 45.7054 301.675 49.3739 299.549 51.6915C297.452 53.9765 294.18 55.286 289.344 55.286V57.286V59.286C294.889 59.286 299.402 57.7673 302.496 54.3959C305.56 51.0569 306.915 46.2408 306.915 40.3166H304.915ZM289.344 57.286V55.286C284.532 55.286 281.269 53.9781 279.171 51.6915C277.042 49.3711 275.793 45.699 275.773 40.3091L273.773 40.3166L271.773 40.3241C271.795 46.2471 273.162 51.0597 276.224 54.3959C279.316 57.7657 283.817 59.286 289.344 59.286V57.286ZM340.983 23.6332H342.983C342.983 22.5287 342.087 21.6332 340.983 21.6332V23.6332ZM340.983 57V59C342.087 59 342.983 58.1046 342.983 57H340.983ZM338.536 57L336.544 57.1784C336.636 58.2097 337.5 59 338.536 59V57ZM338.155 52.7418L340.147 52.5634C340.082 51.843 339.634 51.2136 338.974 50.9173C338.314 50.621 337.546 50.704 336.965 51.1343L338.155 52.7418ZM313.495 23.6332V21.6332C312.39 21.6332 311.495 22.5287 311.495 23.6332H313.495ZM316.832 23.6332H318.832C318.832 22.5287 317.936 21.6332 316.832 21.6332V23.6332ZM337.646 49.7864L338.818 51.4073C339.338 51.0313 339.646 50.4284 339.646 49.7864H337.646ZM337.646 23.6332V21.6332C336.542 21.6332 335.646 22.5287 335.646 23.6332H337.646ZM340.983 23.6332H338.983V57H340.983H342.983V23.6332H340.983ZM340.983 57V55H338.536V57V59H340.983V57ZM338.536 57L340.528 56.8216L340.147 52.5634L338.155 52.7418L336.163 52.9202L336.544 57.1784L338.536 57ZM338.155 52.7418L336.965 51.1343C333.471 53.7209 329.608 55 325.316 55V57V59C330.474 59 335.169 57.4403 339.345 54.3492L338.155 52.7418ZM325.316 57V55C321.71 55 319.367 54.0574 317.899 52.5151C316.414 50.9542 315.495 48.4325 315.495 44.5749H313.495H311.495C311.495 49.0007 312.546 52.6915 315.001 55.2723C317.474 57.8717 321.041 59 325.316 59V57ZM313.495 44.5749H315.495V23.6332H313.495H311.495V44.5749H313.495ZM313.495 23.6332V25.6332H316.832V23.6332V21.6332H313.495V23.6332ZM316.832 23.6332H314.832V44.6702H316.832H318.832V23.6332H316.832ZM316.832 44.6702H314.832C314.832 48.0558 315.611 50.9677 317.524 53.0354C319.465 55.1325 322.244 56.0129 325.475 56.0129V54.0129V52.0129C322.944 52.0129 321.402 51.3361 320.461 50.319C319.492 49.2725 318.832 47.5131 318.832 44.6702H316.832ZM325.475 54.0129V56.0129C330.169 56.0129 334.629 54.4353 338.818 51.4073L337.646 49.7864L336.475 48.1655C332.867 50.7728 329.213 52.0129 325.475 52.0129V54.0129ZM337.646 49.7864H339.646V23.6332H337.646H335.646V49.7864H337.646ZM337.646 23.6332V25.6332H340.983V23.6332V21.6332H337.646V23.6332ZM351.056 18.231V16.231C349.952 16.231 349.056 17.1264 349.056 18.231H351.056ZM353.408 18.231L355.396 18.0088C355.282 16.9965 354.427 16.231 353.408 16.231V18.231ZM354.012 23.6332L352.024 23.8554C352.137 24.8677 352.993 25.6332 354.012 25.6332V23.6332ZM364.022 23.6332H366.022C366.022 22.5287 365.126 21.6332 364.022 21.6332V23.6332ZM364.022 26.4932V28.4932C365.126 28.4932 366.022 27.5978 366.022 26.4932H364.022ZM354.298 26.4932V24.4932C353.193 24.4932 352.298 25.3887 352.298 26.4932H354.298ZM364.022 54.14H366.022C366.022 53.0354 365.126 52.14 364.022 52.14V54.14ZM364.022 57V59C365.126 59 366.022 58.1046 366.022 57H364.022ZM351.056 18.231V20.231H353.408V18.231V16.231H351.056V18.231ZM353.408 18.231L351.42 18.4531L352.024 23.8554L354.012 23.6332L355.999 23.4111L355.396 18.0088L353.408 18.231ZM354.012 23.6332V25.6332H364.022V23.6332V21.6332H354.012V23.6332ZM364.022 23.6332H362.022V26.4932H364.022H366.022V23.6332H364.022ZM364.022 26.4932V24.4932H354.298V26.4932V28.4932H364.022V26.4932ZM354.298 26.4932H352.298V47.562H354.298H356.298V26.4932H354.298ZM354.298 47.562H352.298C352.298 49.9405 352.724 52.0867 353.893 53.6792C355.147 55.387 357.014 56.14 359.128 56.14V54.14V52.14C358.022 52.14 357.473 51.7967 357.117 51.3117C356.677 50.7116 356.298 49.5688 356.298 47.562H354.298ZM359.128 54.14V56.14H364.022V54.14V52.14H359.128V54.14ZM364.022 54.14H362.022V57H364.022H366.022V54.14H364.022ZM364.022 57V55H359.192V57V59H364.022V57ZM359.192 57V55C356.843 55 355.433 54.3601 354.573 53.41C353.68 52.4219 353.056 50.7431 353.056 48.0069H351.056H349.056C349.056 51.2661 349.789 54.0838 351.607 56.0934C353.459 58.1411 356.117 59 359.192 59V57ZM351.056 48.0069H353.056V18.231H351.056H349.056V48.0069H351.056Z" fill="black"/>
<defs>
<linearGradient id="paint0_linear_354_4802" x1="30.4712" y1="55.3094" x2="29.9776" y2="28.9942" gradientUnits="userSpaceOnUse">
<stop stop-color="#45D1FC"/>
<stop offset="1" stop-color="#008CFF"/>
</linearGradient>
<linearGradient id="paint1_linear_354_4802" x1="61.3784" y1="29.7222" x2="31.4317" y2="29.7222" gradientUnits="userSpaceOnUse">
<stop stop-color="#008CFF"/>
<stop offset="1" stop-color="#078EFF"/>
</linearGradient>
</defs>
</svg>
